<?xml version="1.0" encoding="UTF-8"?><svg id="Layer_1" xmlns="http://www.w3.org/2000/svg" viewBox="0 0 2110.55 2110.55"><defs><style>.cls-1{opacity:.3;}.cls-1,.cls-2,.cls-3,.cls-4{fill:none;}.cls-2{opacity:.4;}.cls-3{opacity:.55;}.cls-5{fill:#fc9500;}.cls-6{fill:#fff;}.cls-7{fill:#ff40b2;}.cls-8{fill:#822c43;}.cls-9{fill:#232323;}.cls-10{fill:#792937;}.cls-4{opacity:.2;}</style></defs><path class="cls-5" d="m1845.62,309.37c290.89,300.66,189.75,822.93-270,1267.72-183.61,177.6-377.66,297.7-563.08,358.64-45.45,14.98-90.33,26.4-134.58,34.17-226.47,40.23-432.01-13.72-578.22-164.86-95.82-99.11-148-222.38-158.48-359.05-21.33-278.21,130.18-612.01,438.4-910.2C994.12,134.81,1453.75,28.46,1753.38,231.72c32.8,22.17,63.61,48.01,92.25,77.65Z"/><g class="cls-1"><path class="cls-9" d="m1575.6,1577.09c-183.6,177.6-377.65,297.7-563.05,358.65-45.45,15-90.35,26.4-134.6,34.15-226.45,40.25-432-13.7-578.2-164.85-44.1-45.6-78.95-96.35-104.75-151.15-20.25-42.95-34.9-88.35-44.05-135.8,22.45,44.1,44.4,53.85,66.8,49.5,31.1-6.05,63.05-39.25,98.15-45.65,73.35-13.35,203.35,56.65,313.6,103.35,110.3,46.65,19.75-66.7,163.1-236.7,143.3-170,136.65-16.65,310,22.15,173.3,38.8,86.65-105.45,156.5-212.15,69.85-106.65,120.15-110,178.65-178.45,58.5-68.5-18.5-138.2,151.45-268.25,126.35-96.7,141.1-329.05,140.35-441.9,9.1,5.4,18,11.1,26.8,17.05,70.8,58.95,91.25,133.55,75.3,204,11.8,19.05,25.45,37.05,34.9,57.3,9.85,21.2,14.8,46,6.85,67.95-7.95,21.95-31.7,39.05-54.4,33.75-11.2-2.65-20.4-9.95-27.7-19.1-1.75,37.85,6,75.8,24.1,110.25,62.95,119.85,88.7,280.45-51.4,289.8-35.7,2.4-96.15-93.1-156.45-61.9-27.2,14.05-37.4,42.4-36.35,57.05,9.2,127.45,19.75,190.95-87.55,212.8-22.05,3.15-42,7.5-59.7,13.25.45,20.05,3.2,40.15.25,59.95-3.55,23.7-18.65,48.3-42.3,52.15-4.3.7-8.6.7-12.8.15-14.25-1.85-27.9-9.55-41.3-15.7-.45,3.15-.8,6.35-1,9.65,1.8,134.75-98.75,261.3-249.2,226.6-10.05-4.1-19.85-7.85-29.35-11.35-72.1-26-129.35-32.9-175.3-22.4-49.45,11.2-85.8,42.75-113.25,92.45-7.2,26.55-10.8,55.25-10.7,86.25.05.35.05.7.1,1.05,3.75,46.7,45.1,81.3,91.55,75.15,12.35-1.65,24.8-3.6,37.3-5.8,44.25-7.8,89.15-19.2,134.6-34.2,185.4-60.95,379.45-181.05,563.05-358.65,263-254.4,408.65-534.2,430.65-783.35,26.05,278.5-120.95,613.3-430.65,912.95Z"/></g><g class="cls-1"><path class="cls-8" d="m217.75,1567.59c-22.4,4.35-44.35-5.4-66.8-49.5-4.6-23.55-7.8-47.6-9.7-72.1-2.95-38.3-2.6-77.6,1-117.8,8.2,86.25,33.2,166.95,75.5,239.4Z"/><path class="cls-9" d="m208.53,1571c-22.76,0-41.96-16.72-59.8-51.79l-.23-.65c-4.54-23.24-7.82-47.59-9.74-72.38-2.94-38.18-2.6-77.95,1-118.22h4.98c8.26,86.88,33.55,167.08,75.17,238.36l1.78,3.04-3.46.67c-3.3.64-6.54.96-9.7.96Zm-55.19-53.75c23.14,45.29,44.14,50.55,60.43,48.45-36.68-63.78-60.49-134.56-70.93-210.76-1.66,30.9-1.36,61.36.91,90.84,1.9,24.48,5.12,48.52,9.59,71.46Z"/></g><path class="cls-7" d="m1153.51,173.09c-187.76,59.1-385.4,180.42-573.84,362.7-308.22,298.19-459.73,631.99-438.4,910.2,40.59,154.54,139.75,215.44,286.13,200.78,35.48-3.57,71.05,8.66,96.68,33.39,17.59,16.89,34.34,37.05,50.74,58.58,59.77,89.19,182.37,65.79,171.23-64.14-.09-30.96,3.48-59.67,10.68-86.22,27.49-49.7,63.79-81.26,113.28-92.46,45.93-10.53,103.2-3.6,175.27,22.42,9.5,3.49,19.3,7.21,29.38,11.32,150.42,34.72,251-91.86,249.2-226.62,4.33-68.19,60.38-105.74,156.85-119.44,107.29-21.86,96.74-85.31,87.54-212.8-1.06-14.64,9.15-43,36.33-57.05,60.32-31.19,120.75,64.32,156.49,61.93,140.08-9.37,114.35-169.99,51.38-289.8-32.95-62.72-31.72-137.22-.97-201.08,40.1-83.36,29.5-180.17-58.07-253.08-163.49-110.87-374.5-129.63-599.87-58.63Zm-346.77,684.9c94.83-10.63,163.72-38.58,158.38-116.01,2.83-49.76,23.35-86.08,72.8-100.55,21.51-6.31,40.76-18.78,53.66-37.16,54.84-78.33,125.2-133.22,219.31-37.3-11.63,166.62-107.67,257.48-171.37,335.94-162.17,199.74-448.8,240.58-448.8,240.58-109.5-81.98,6.14-269.56,116.02-285.51Z"/><g class="cls-1"><path class="cls-8" d="m150.95,1518.09c-2.9-5.55-5.75-11.7-8.6-18.45.2,14,.85,27.9,1.9,41.65,11.95,45.5,28.95,82.9,50.75,112.6-20.25-42.95-34.9-88.35-44.05-135.8Z"/><path class="cls-9" d="m192.99,1655.37c-22.07-30.06-39.28-68.23-51.15-113.44-1.14-14.46-1.79-28.53-1.98-42.25l-.18-12.81,4.99,11.81c2.92,6.93,5.71,12.9,8.51,18.26l.24.68c9.13,47.37,23.89,92.86,43.86,135.21l-4.28,2.54Zm-47.84-143.33c.32,9.62.85,19.36,1.6,29.06,8.42,31.94,19.61,60.44,33.37,84.96-13.8-34.18-24.38-70.09-31.55-107.14-1.14-2.19-2.28-4.48-3.42-6.88Z"/></g><g class="cls-1"><path class="cls-9" d="m1803.25,287.49c4.3,38.75-3.55,78.1-21.2,114.8-30.75,63.85-31.95,138.4,1,201.1,2.5,4.8,4.95,9.65,7.35,14.55-6.6-44.75.85-91.25,21.05-133.15,30.55-63.45,31.65-134.75-8.2-197.3Z"/><path class="cls-9" d="m1761.05,975.69c-35.75,2.4-96.2-93.15-156.5-61.95-27.2,14.05-37.4,42.45-36.35,57.05,9.25,127.5,19.8,190.95-87.5,212.8-96.5,13.7-152.55,51.25-156.85,119.45,1.8,134.75-98.8,261.35-249.2,226.6-10.1-4.1-19.9-7.8-29.4-11.3-72.05-26-129.35-32.95-175.25-22.4-49.5,11.2-85.8,42.75-113.3,92.45-7.2,26.55-10.75,55.25-10.65,86.2,11.15,129.95-111.5,153.35-171.25,64.15-16.4-21.55-33.15-41.7-50.75-58.6-25.6-24.7-61.2-36.95-96.65-33.35-146.4,14.65-245.55-46.25-286.15-200.79,1.15-.44.78-.3,1.93-.75,50.89,94.15,137.74,130.76,254.81,119.03,35.5-3.6,71.05,8.65,96.7,33.35,17.55,16.9,34.3,37.05,50.7,58.6,59.8,89.2,182.4,65.8,171.25-64.15-.1-30.95,3.45-59.65,10.65-86.2,27.5-49.7,63.8-81.25,113.3-92.45,45.95-10.55,103.2-3.6,175.25,22.4,9.5,3.5,19.3,7.2,29.4,11.3,62.64,14.48,121.98-2.03,169.79-35.94,9.82-6.96,17.12-17.18,19.91-28.89.02-.07.03-.14.05-.22,3.65-15.86,1.25-32.87-6.11-47.32-3.74-7.35,1.01-16.12,9.25-16.53,19.15-.95,41.26-1.75,56.91-2.85.05,1.65.05,3.3-.05,5,19.9-36.65,31.05-77.3,30.5-117.2,4.35-68.2,29.35-88.4,125.8-102.1,107.3-21.85,96.75-85.3,87.55-212.8-1.05-14.6,9.15-43,36.3-57.05,60.35-31.2,120.75,64.35,156.5,61.95,100.3-6.7,115.6-90.95,93.1-182.25,53.4,116,66.85,256.05-63.7,264.75Z"/></g><g class="cls-1"><path class="cls-8" d="m1790.4,617.94c3.4,23.45,10.65,46.4,22,67.95,4.3,8.2,8.4,16.55,12.35,25.05-7.7-31.1-19.75-63.05-34.35-93Z"/><path class="cls-9" d="m1822.49,711.99c-4.04-8.7-8.18-17.09-12.3-24.94-11.25-21.37-18.74-44.5-22.26-68.75l-2.3-15.85,7.02,14.4c15.13,31.03,27.07,63.36,34.53,93.49l-4.69,1.66Zm-25.71-74.34c4.02,16.42,9.99,32.18,17.84,47.07.06.12.12.23.18.34-5.01-15.65-11.07-31.6-18.01-47.41Z"/></g><g class="cls-3"><path class="cls-6" d="m1753.4,231.74c-163.5-110.9-374.5-129.65-599.9-58.65-187.75,59.1-385.4,180.45-573.85,362.7-308.2,298.2-459.7,632-438.4,910.2,3.45,13.1,7.3,25.55,11.6,37.3-21-278.05,130.55-611.5,438.45-909.45,188.45-182.3,386.1-303.6,573.85-362.7,225.4-71,436.4-52.25,599.9,58.6,31.05,25.85,52.45,54.75,65.3,84.95-8.5-43.85-33.05-86.4-76.95-122.95Z"/></g><g class="cls-2"><path class="cls-10" d="m1814,279.02c10.82,9.62,21.38,19.72,31.63,30.36,16.59,17.19,31.92,35.06,45.94,53.66-13.18-23.79-32.44-47.74-58.75-71.83-6.22-4.18-12.48-8.29-18.82-12.18Z"/><path class="cls-9" d="m1889.56,364.53c-13.77-18.28-29.16-36.25-45.74-53.42-9.93-10.3-20.52-20.47-31.49-30.22l2.97-4c5.51,3.38,11.34,7.15,18.91,12.24,26.01,23.76,45.94,48.14,59.54,72.69l-4.18,2.71Z"/></g><g class="cls-3"><path class="cls-6" d="m1148.04,894.16c-323.61,341.11-620.45,289.38-594.89,86.2-105.94,313.31,356.63,262.54,616.11-40.92,241.6-260.19,271.22-525-27.55-496.39,252.55,9.66,189.13,251.18,6.33,451.11Z"/></g><g class="cls-3"><path class="cls-6" d="m427.39,1646.77c-12.58,1.26-24.75,1.98-36.67,2.11,28.45,6.33,59.7,8.27,93.65,5.85-17.87-7.08-37.41-9.89-56.98-7.95Z"/><path class="cls-9" d="m456.92,1658.22c-23.71,0-46.06-2.3-66.74-6.9l-21.13-4.7,21.65-.24c11.77-.13,23.69-.82,36.45-2.09h0c19.72-1.94,39.83.85,58.15,8.12l10.18,4.04-10.93.78c-9.39.67-18.62,1-27.64,1Zm-43.1-7.78c18.08,2.44,37.26,3.29,57.36,2.51-14.09-3.86-28.92-5.15-43.53-3.69-4.71.47-9.31.86-13.83,1.18Z"/></g><path class="cls-9" d="m737.83,1998.76c-177.36,0-333.75-62.73-449.68-182.55-144.97-149.84-196.7-361.23-145.66-595.22,50.75-232.67,202.04-480.13,426-696.81,226.45-219.09,470.15-356.37,704.74-397.02,231.14-40.03,438.54,20.69,583.99,171.03h0c145.46,150.35,198.97,361.41,150.68,594.29-49.01,236.38-194.61,477.12-421.04,696.19-226.44,219.07-471.86,356.63-709.73,397.79-47.57,8.24-94.12,12.3-139.29,12.3ZM1412.63,147.01c-43.18,0-87.87,3.96-133.91,11.94-228.19,39.54-466.03,173.85-687.82,388.42-219.44,212.3-367.5,453.97-416.91,680.5-48.66,223.11.11,424.09,137.33,565.92,137.81,142.44,336.79,199.57,560.29,160.9,228.16-39.49,474.2-177.71,692.8-389.19,218.6-211.49,364.88-452.83,411.89-679.56,46.05-222.1-4.48-422.87-142.28-565.31-110.99-114.73-254.94-173.61-421.39-173.61Z"/><path class="cls-9" d="m705.61,1159.85c-52.9,0-96.97-16.68-127.73-51.24-38.18-42.95-50.31-104.14-33.26-167.88,2.3-8.61,11.14-13.7,19.75-11.42,8.6,2.3,13.72,11.14,11.41,19.75-14.19,53.08-4.64,103.42,26.2,138.11,77.96,87.6,273.92,29.14,465.95-138.97,96.74-84.68,169.3-176.63,204.33-258.9,33.03-77.58,31.29-143.06-4.9-184.39-38.46-43.99-107.46-53.08-194.3-25.58-8.5,2.69-17.55-2.01-20.25-10.51-2.69-8.49,2.02-17.55,10.51-20.24,99.82-31.6,180.9-19.15,228.32,35.09,44.79,51.15,48.46,128.67,10.31,218.27-37.43,87.91-111,181.46-212.77,270.53-139.13,121.8-278.69,187.38-383.57,187.38Z"/><path class="cls-9" d="m690.74,1159.63c-3.36,0-6.75-1.05-9.65-3.22-44.32-33.18-60.31-84.56-45.03-144.67,21.15-83.14,96.66-159.27,168.34-169.7.17-.02.35-.04.52-.06,104.97-11.8,148.06-41.37,144.09-98.88-.05-.67-.05-1.35-.01-2.02,3.45-61.04,31.84-99.78,84.38-115.14,19.21-5.62,34.76-16.29,44.97-30.88,42.76-61.08,83.09-91.22,126.9-94.84,38.48-3.24,77.88,15.48,117.13,55.48,6.24,6.36,6.14,16.57-.22,22.81-6.36,6.25-16.57,6.15-22.81-.22-32.21-32.82-62.97-48.31-91.44-45.92-33.06,2.73-66.8,29.29-103.13,81.19-14.46,20.66-36.02,35.65-62.35,43.34-38.84,11.36-58.29,38.39-61.17,85.04,6.2,100.17-95.3,123.37-172.47,132.07-58.85,8.73-123.59,75.38-141.48,145.7-8.39,33-9.46,79.03,33.1,110.89,7.13,5.34,8.58,15.44,3.24,22.58-3.17,4.23-8.02,6.46-12.92,6.46Z"/><path class="cls-9" d="m146.43,1444.34c5.6,7.49,9.87,15.15,13.93,22.81,4.17,7.59,8.41,14.99,11.93,22.64,3.64,7.59,7.8,14.8,11.52,22.25,1.69,3.82,4.13,7.16,6.19,10.73l6.18,10.7c4.39,6.91,9.12,13.56,13.63,20.39l7.72,9.43c2.62,3.1,4.98,6.48,8.02,9.16,5.86,5.56,11.33,11.66,18,16.27l9.64,7.37c3.4,2.19,6.92,4.19,10.36,6.31,13.72,8.61,29.01,14.46,44.47,19.65,3.93,1.14,7.96,1.99,11.93,3.01,4.01.89,7.91,2.18,12.01,2.77l12.26,1.88c4.09.63,8.15,1.37,12.34,1.52,16.57,1.49,33.36,1.76,50.21.8l26.39-1.85c9.94-.46,19.92.17,29.72,1.85,19.59,3.36,38.42,10.98,54.83,22.23l6.04,4.38,5.79,4.7,5.53,5.02,4.95,4.85c6.51,6.5,12.7,13.21,18.68,20.03,11.85,13.67,23.25,27.74,33.53,42.05,4.85,6.35,9.84,12.12,15.64,17.17,5.68,5.1,11.81,9.65,18.39,13.16,6.55,3.57,13.42,6.43,20.49,8.18,7.07,1.7,14.27,2.41,21.31,2.01,14.08-.77,27.48-6.14,37.59-15.7,5.09-4.73,9.44-10.37,13.03-16.64,3.55-6.32,6.09-13.36,8.14-20.62,3.69-14.75,4.53-30.74,3.17-46.85v-.07c-.04-.42-.06-.86-.06-1.28,0-27.22,2.69-54.7,9.05-81.57,6.33-26.85,16.43-53.03,30.26-77.11,13.71-24.23,31.68-45.54,50.5-65.67,4.9-4.83,9.79-9.74,15.11-14.09,5.49-4.13,10.89-8.4,16.78-11.94,5.94-3.45,12.05-6.65,18.51-9.14,6.63-2.23,13.37-4.19,20.73-4.88,3.29-.31,6.21,2.11,6.52,5.41.12,1.26-.16,2.46-.74,3.49l-.15.27c-3.61,6.44-7.83,11.61-12.16,16.51-4.27,4.96-8.61,9.64-13.28,13.84-4.55,4.34-9.04,8.64-13.73,12.71-4.7,4.05-9.11,8.36-13.91,12.3-18.77,16.21-33.87,36.1-46.2,57.29-12.22,21.31-21.16,44.43-26.83,68.48-5.7,24.05-8.18,48.98-8.18,74.05l-.06-1.34c1.58,18.85.76,38.41-4.1,57.75-2.67,9.63-6.13,19.2-11.19,28.23-5.1,8.98-11.54,17.42-19.33,24.62-15.47,14.64-36.66,23.12-57.58,24.18-10.48.6-20.93-.48-30.93-2.91-9.99-2.48-19.46-6.41-28.3-11.24-8.89-4.79-16.98-10.78-24.35-17.39-7.45-6.5-14.01-14.08-19.79-21.67-10.2-14.21-20.97-27.44-32.1-40.3-5.6-6.37-11.32-12.58-17.24-18.48l-4.45-4.37-4.22-3.84-4.43-3.6-4.62-3.35c-12.56-8.62-27.03-14.48-42.06-17.05-7.51-1.29-15.16-1.77-22.76-1.42l-26.15,1.84c-18.21,1.04-36.61.77-55.01-.9-4.6-.19-9.19-.98-13.78-1.69l-13.77-2.13c-4.59-.68-9.1-2.09-13.65-3.12-4.53-1.16-9.1-2.15-13.59-3.47-17.8-5.89-35.52-12.77-51.63-22.8-4.04-2.47-8.14-4.85-12.1-7.43l-11.31-8.59c-7.86-5.37-14.28-12.35-21.4-18.6-3.64-3.06-6.53-6.79-9.76-10.23l-9.45-10.54c-5.61-7.49-11.31-15.02-16.4-22.86-4.55-8.12-9.48-16.12-13.26-24.57-1.86-4.24-3.56-8.54-5.33-12.81-1.72-4.28-3.67-8.48-4.81-12.94-2.48-8.85-4.92-17.71-6.17-26.81-.94-9.18-1.66-18.35-1.05-27.69.2-3.12,2.89-5.48,6.01-5.28,1.71.11,3.19.97,4.15,2.24l.24.32Z"/><path class="cls-9" d="m756.7,1604.56c-2.64,0-5.31-.65-7.78-2.01-7.8-4.31-10.63-14.12-6.32-21.92,62.53-113.24,169.62-134.36,336.94-66.39,56.55,12.74,108.49,1.67,150.26-32.03,49.01-39.52,78.87-108.11,77.92-178.99,0-.41,0-.83.03-1.24,4.7-73.7,62.11-118.9,170.65-134.34,39.36-5.6,74.31-38.38,79.57-74.64,2.7-18.61,0-37.96-2.84-58.44-.45-3.26-.91-6.52-1.34-9.78-3.46-26.12-5.34-53.87,4.21-79.89,11.63-31.69,40.13-53.17,69.44-52.65,25.16.59,54.03,11.56,75.35,28.62,4.38,3.51,8.68,7.2,12.97,10.89,12.41,10.68,24.13,20.77,37.53,25.54,33.95,12.06,72.68-14.9,86.21-46.66,13.27-31.15,11.93-70.79-3.99-117.82-5.95-17.58-13.43-35.27-20.65-52.37-9.75-23.08-19.84-46.94-26.89-71.93-18.31-64.94-15.13-135.4,8.97-198.42,22.56-58.98,28.01-141.91-10.65-194.22-5.29-7.16-3.78-17.26,3.39-22.55,7.17-5.3,17.26-3.78,22.56,3.38,49.05,66.37,38.65,162.64,14.83,224.92-21.63,56.58-24.49,119.84-8.05,178.13,6.5,23.05,15.76,44.95,25.55,68.13,7.45,17.64,15.16,35.88,21.49,54.58,18.54,54.77,19.58,102.14,3.11,140.81-19.56,45.9-75.14,82.74-126.69,64.4-19.08-6.78-33.66-19.34-47.77-31.47-4-3.45-8-6.89-12.08-10.16-15.83-12.67-37.79-21.13-55.95-21.56-17.45-.16-32.54,15.54-38.4,31.51-7.14,19.46-5.43,42.52-2.52,64.55.42,3.18.87,6.37,1.31,9.57,3.04,21.81,6.18,44.37,2.82,67.52-7.33,50.49-53.31,94.32-106.95,101.94-92.26,13.12-139.03,47.1-142.96,103.86.91,81.53-32.68,157.71-89.93,203.88-50.08,40.39-111.98,53.55-179.01,38.06-.84-.19-1.67-.45-2.46-.78-154.01-62.85-243.05-47.42-297.74,51.62-2.94,5.33-8.45,8.33-14.13,8.33Z"/><path class="cls-7" d="m1410.25,1213.34c-.9,23.95,3.75,48.1.2,71.8-3.55,23.7-18.65,48.3-42.3,52.15-4.3.7-8.6.7-12.8.15-14.35-1.85-28.15-9.7-41.65-15.85-17.5-7.9-40.25-12.35-54.2.9,0,0-9.9-85.95,67.7-136.35l.6-.4c24.55-15.85,57.8-28.1,102.8-33,3.2-.4,1.32-2.16,4.67-2.46,10.7-.9-1.35,9.35-10,20-10.6,13.15-14.57,29.86-15.02,43.06Z"/><path class="cls-9" d="m1441.76,1154.1c-8.41,11.42-11.39,22.32-13.14,33.96-.81,5.78-1.33,11.61-1.48,17.5-.12,2.95-.09,5.87.05,8.86.12,3.09.16,6.21.39,9.41.65,12.77,1.5,26.67.97,41.64-.27,7.49-.87,15.15-2.24,23.09-1.47,8.19-3.79,16.12-7.13,23.79-3.41,7.61-7.67,15.09-13.62,21.8-5.85,6.72-13.37,12.8-22.43,16.76-9.08,3.92-19.43,5.25-28.64,4.25-9.3-.98-17.42-3.68-24.56-6.78-7.12-3.12-13.45-6.52-19.23-9.79-3-1.66-5.57-3.02-8.11-4.29-2.58-1.31-5.17-2.58-7.77-3.71-5.2-2.38-10.31-4.34-15.61-5.76-2.64-.65-5.31-1.11-8.28-1.35-2.87-.03-6,.16-9.57.95l-.33.07c-1.59.35-3.16-.65-3.51-2.24-.13-.6-.07-1.2.14-1.74,1.54-3.83,4.17-7.49,7.61-10.3,3.41-2.83,7.46-4.95,11.66-6.41,8.42-2.78,17.17-3.05,25.27-1.97,4.07.56,8.04,1.42,11.87,2.61,3.91,1.13,7.57,2.7,10.81,3.95,6.66,2.59,12.68,5.3,18.3,7.37,5.6,2.03,10.7,3.64,15.11,4.1,4.45.62,8.16.17,11.87-.96,7.32-2.51,14.99-9.95,19.43-19.9,2.29-4.89,3.93-10.25,4.7-15.63.87-5.64.97-11.77.76-18.03-.43-12.56-2.38-26.09-2.27-40.84.06-3.67.16-7.43.47-11.22.38-3.88.92-7.83,1.64-11.71,1.55-7.75,3.99-15.43,7.71-22.65,3.69-7.18,8.55-14.03,14.92-19.37,6.18-5.42,13.87-9.25,21.67-10.19,1.59-.19,3.03.94,3.22,2.53.09.76-.12,1.48-.54,2.06l-.1.14Z"/><path class="cls-7" d="m255.15,1531.64c-4.85,3.1-8.9,6.95-12.35,11.4-8.65,11.1-13.25,25.65-15.3,39.85-2.9,19.85-1.85,40.2-6.2,59.8-4.3,19.55-15.6,39.3-34.45,46.15-20.6,7.45-44.7-3.5-57.15-21.5-12.5-18-15.05-41.3-12.55-63.05,1.75-15.2,5.7-29.95,9.75-44.75,1.75-6.4,3.5-12.75,5.05-19.2,10.65-43.1,11.7-74.2,7.3-118.4l115.9,109.7Z"/><path class="cls-9" d="m155.3,1420.34c2.65,20.94,4.17,42.66,2.95,64.65-1.11,21.98-4.86,43.7-10.18,64.44-5.27,20.7-11.15,39.74-13.13,57.88-2.03,17.86.44,35.61,8.39,48.36,3.72,6.06,9.19,11.11,15.58,14.37,6.34,3.25,13.17,4.43,18.87,3.33,5.66-.96,11.22-4.31,15.94-9.92,4.73-5.58,8.47-13.18,10.78-21.26,4.81-16.48,3.87-37.13,8.07-59.28,2.03-11.25,5.73-22.65,11.88-33.05,6.01-10.36,15.2-19.91,26.62-24.67,3.94-1.64,8.46.22,10.1,4.16,1.21,2.91.52,6.13-1.51,8.28l-.39.41c-12.07,12.76-16.03,30.37-17.35,48.76-1.27,18.8.07,40.11-5.6,63.88-3.06,11.84-8.05,23.51-16.34,34.05-8.16,10.46-20.62,19.62-35.38,22.61-14.67,3.01-29.24.07-41.34-5.87-12.15-5.93-22.6-15.26-29.93-26.67-7.17-11.08-11.38-23.44-13.36-35.55-2.02-12.15-2.03-24.13-.81-35.75,2.44-23.11,9.29-43.7,14.33-63,4.98-19.3,8.95-38.41,10.41-57.73,1.54-19.31.75-39.06-.69-59.25-.64-8.89,6.05-16.61,14.93-17.25,8.57-.62,16.07,5.65,17.16,14.07Z"/><path class="cls-7" d="m1767.09,390.09c-.28,23.35,9.85,45.6,22,65.54s26.58,38.61,36.44,59.78c9.86,21.17,14.82,45.96,6.87,67.93-7.94,21.96-31.69,39.07-54.43,33.75-17.2-4.02-29.64-19.08-37.71-34.79-8.06-15.71-13.14-32.97-22.8-47.75-9.66-14.78-25.74-27.26-43.34-25.78"/><path class="cls-9" d="m1780.06,433.16c12.9,11.7,24.07,22.5,34.87,35.16,5.36,6.28,10.35,13.09,15.14,20.32,4.89,7.2,9.31,14.9,13.19,23.33,7.54,16.81,12.19,36.02,9.97,56.29-1.21,10.11-3.86,20.09-9.24,29.73-5.19,9.4-12.4,17.27-20.92,23.6-8.55,6.26-18.83,10.8-30.25,12.32-5.72.56-11.64.57-17.45-.61-5.73-1.1-11.18-3.13-16.15-5.73-19.91-10.77-31.08-28.64-38.09-44.91-6.91-16.26-10.86-31.03-16.94-43.06-2.99-6-6.89-11.66-11.59-16.67-4.82-4.85-10.46-9.14-18.25-11.48l-.14-.04c-1.5-.45-2.35-2.03-1.9-3.53.25-.83.85-1.46,1.59-1.78,8.62-3.74,19.41-3.05,28.5.58,9.29,3.49,17.38,9.44,24.04,16.64,13.17,14.68,19.62,31.45,26.33,44.85,3.33,6.85,6.5,12.6,10.3,17.9,3.78,5.19,7.96,9.51,12.36,12.19,4.45,2.75,8.87,3.82,13.68,3.43,2.43-.32,4.94-.89,7.44-1.91,2.44-1.17,4.93-2.45,7.19-4.26,4.6-3.42,8.43-8.2,10.92-13.22,2.41-4.79,3.81-10.99,4.19-17.14.62-12.48-2.6-26.09-7.89-39.25-2.65-6.59-5.99-13.33-9.5-20.17-3.6-6.82-7.61-13.69-11.27-21.05-7.23-14.6-14.34-31.14-15.02-49.28-.06-1.6,1.19-2.95,2.8-3.01.79-.03,1.51.26,2.06.74l.04.03Z"/><g class="cls-1"><path class="cls-9" d="m1293.86,560.6c-11.72-16.5-35.81-20.73-54.76-13.63-18.95,7.1-33.21,23.26-43.32,40.78-10.11,17.53-16.82,36.79-25.73,54.95-8.92,18.16-20.61,35.78-37.77,46.51-13.05,8.16-28.32,11.78-43.05,16.23-14.73,4.45-29.74,10.21-40.29,21.41-10.55,11.2-12.29,29.86-11.08,45.2,2.6,33-6.4,66.8-25.08,94.13-18.68,27.33-46.9,47.99-78.59,57.55-29.12,8.78-60.25,8.31-89.87,15.23-44.13,10.31-84.07,37.58-109.73,74.93-25.66,37.35-37.86,82.57-31.66,127.46-44.55,2.29-89.7-17.97-117.6-52.78-27.91-34.81-36.69-86.02-30.32-130.18,9.44-65.37,48.28-125.93,103.77-161.77,30.14-19.47,64.3-31.66,96.41-47.67s63.4-37.14,80.99-68.42c16.83-29.93,20.62-68.1,46.07-91.16,32.83-29.75,91.69-24.41,114.77-62.23,8.13-13.33,9.85-29.64,16.8-43.62,6.95-13.98,23.44-26.01,37.53-19.28,50.45-24.49,113.29-27.93,166.44-10.04,53.15,17.89,97.22,66.97,99.56,123-2.6-6.92-16.27-14.93-23.46-16.61Z"/></g><g class="cls-1"><path class="cls-9" d="m1774.24,438.14c-12.07-.08-21.31,12.37-21.76,24.43-.45,12.06,5.58,23.38,12.26,33.43,6.68,10.06,14.3,19.82,17.77,31.38,6.64,22.12-5.31,48.26-26.38,57.71-5.59-17.83-14.86-32.4-25.87-47.5-11.01-15.09-28.41-26.82-47.07-26.08,9.46,14.76,10.54,36.39,10.4,53.93-.14,17.53-1.71,35.34,2.39,52.39,5.43,22.59,21.19,42.48,41.94,52.94,20.75,10.46,46.11,11.3,67.5,2.23-1.96-17.22-3.08-36.28-5.04-53.5,24.68-10.38,42.85-35.92,45.13-62.59,1.99-23.29-7.28-46.41-21-65.34-13.71-18.92-32.48-38.27-50.26-53.43Z"/></g><g class="cls-1"><path class="cls-9" d="m1410.45,1285.14c-3.55,23.7-18.65,48.3-42.3,52.15-4.3.7-8.6.7-12.8.15-28.9-15.8-59.85-33.6-59.85-33.6,46.85.6,53.15-21.9,40.65-52.3s-8.95-65.4-8.95-65.4l.6-.4c24.55-15.85,57.8-28.1,102.8-33,3.4,7.2-5.33,17.54-5.33,17.54-10.6,13.15-14.57,29.86-15.02,43.06-.9,23.95,3.75,48.1.2,71.8Z"/></g><g class="cls-1"><path class="cls-9" d="m242.8,1543.04c-8.65,11.1-13.25,25.65-15.3,39.85-2.9,19.85-1.85,40.2-6.2,59.8-4.3,19.55-15.6,39.3-34.45,46.15-20.6,7.45-44.7-3.5-57.15-21.5-12.5-18-15.05-41.3-12.55-63.05,1.75-15.2,5.7-29.95,9.75-44.75,1.85,4.1,2.9,9.2,2.95,15.5.65,61.3,50,50.65,50,50.65,22.5-8.75,6.3-51.25,20-76.25,13.8-25,42.95-6.4,42.95-6.4Z"/></g><g class="cls-4"><path class="cls-6" d="m423.28,1223.94c17.4,10.43,37.28,15.9,55.68,24.46,18.4,8.55,36.31,21.43,43.37,40.45,11.91,32.07-13.52,68.53-45.73,80.05-32.21,11.52-67.92,4.5-100.77-5.09-31.82-9.28-64.68-22.08-85.02-48.26-37.77-48.6-19.12-135.76,25.17-175.34,53.56-47.86,69.29,60.94,107.29,83.72Z"/></g><g class="cls-4"><path class="cls-6" d="m704.68,1288.26c11.66-.06,23.62,1.95,33.61,7.96,9.99,6.01,17.73,16.5,18.37,28.15.88,15.71-11.21,29.81-25.54,36.31s-30.54,7.01-46.27,7.42c-25.6.65-67.24-9.77-54.32-44.9,9.12-24.78,51.48-34.81,74.14-34.94Z"/></g><path class="cls-6" d="m1410.84,450.4c-8.1,0-15.08-6.09-16.01-14.33-.99-8.85,5.38-16.83,14.23-17.83l85.37-9.57c8.88-.96,16.83,5.39,17.82,14.23.99,8.85-5.38,16.83-14.23,17.83l-85.37,9.57c-.61.07-1.22.1-1.82.1Z"/><path class="cls-6" d="m373.66,1069.42c-2.78,0-5.59-.72-8.16-2.23-7.68-4.52-10.24-14.4-5.72-22.08l48.47-82.39c4.52-7.68,14.4-10.23,22.08-5.72,7.68,4.52,10.24,14.4,5.72,22.08l-48.47,82.39c-3.01,5.11-8.39,7.95-13.92,7.95Z"/><path class="cls-6" d="m824.41,547.38c-2.63,0-5.3-.65-7.77-2.01-7.8-4.3-10.64-14.11-6.34-21.91l46.15-83.72c4.3-7.8,14.11-10.62,21.91-6.34,7.8,4.3,10.64,14.11,6.34,21.91l-46.15,83.72c-2.94,5.33-8.45,8.34-14.14,8.34Z"/><path class="cls-9" d="m384.42,1244.42c-8.1,0-15.08-6.09-16.01-14.33-.99-8.85,5.38-16.83,14.23-17.83l95-10.65c8.86-1.04,16.83,5.38,17.82,14.23.99,8.85-5.38,16.83-14.23,17.83l-95,10.65c-.61.07-1.22.1-1.82.1Z"/><path class="cls-9" d="m1540.88,743.15c-8.65,0-15.81-6.86-16.11-15.58l-3.27-95.54c-.3-8.9,6.67-16.37,15.57-16.67,8.9-.39,16.36,6.66,16.67,15.57l3.27,95.54c.3,8.9-6.66,16.37-15.57,16.67-.19,0-.38,0-.56,0Z"/><path class="cls-9" d="m1005.27,1263.8c-.27,0-.55,0-.82-.02l-95.48-4.78c-8.9-.44-15.75-8.02-15.3-16.91.45-8.9,8.05-15.82,16.92-15.3l95.48,4.78c8.9.44,15.75,8.02,15.3,16.91-.43,8.62-7.56,15.32-16.1,15.32Z"/><path class="cls-9" d="m1605.95,327.81c-.27,0-.54,0-.82-.02l-81.69-4.09c-8.9-.44-15.75-8.02-15.3-16.91.44-8.9,8.02-15.77,16.91-15.3l81.69,4.09c8.9.44,15.75,8.02,15.3,16.91-.43,8.62-7.56,15.32-16.09,15.32Z"/><path class="cls-9" d="m346.34,1435.2c-2.84,0-5.71-.75-8.32-2.33l-70.01-42.29c-7.62-4.6-10.07-14.52-5.47-22.14,4.61-7.62,14.52-10.08,22.14-5.46l70.01,42.29c7.62,4.6,10.07,14.52,5.47,22.14-3.03,5.01-8.36,7.79-13.82,7.79Z"/><path class="cls-9" d="m1190.38,328.76c-5.4,0-10.68-2.71-13.73-7.65-4.69-7.57-2.34-17.51,5.23-22.2l81.3-50.28c7.58-4.68,17.52-2.34,22.2,5.23,4.68,7.57,2.34,17.51-5.23,22.2l-81.3,50.28c-2.64,1.64-5.57,2.42-8.47,2.42Z"/><path class="cls-6" d="m508.43,1447.83c-6.52,0-12.65-3.98-15.09-10.43-3.15-8.33,1.06-17.64,9.39-20.79l89.43-33.76c8.33-3.14,17.64,1.06,20.79,9.39,3.15,8.33-1.06,17.64-9.39,20.79l-89.43,33.76c-1.88.71-3.8,1.04-5.69,1.04Z"/><path class="cls-6" d="m1261.58,1075.97c-8.59,0-15.73-6.77-16.1-15.43l-4.15-95.5c-.39-8.9,6.51-16.43,15.41-16.81,8.88-.44,16.43,6.51,16.81,15.41l4.15,95.5c.39,8.9-6.51,16.43-15.41,16.81-.24,0-.48.01-.71.01Z"/><path class="cls-9" d="m613.36,740.84c-1.65,0-3.33-.25-4.99-.79-8.47-2.75-13.11-11.85-10.36-20.32l29.53-90.92c2.75-8.47,11.85-13.11,20.32-10.36,8.47,2.75,13.11,11.85,10.36,20.32l-29.53,90.92c-2.21,6.82-8.54,11.15-15.34,11.15Z"/><g class="cls-4"><path class="cls-6" d="m1459.73,463.11c1.18,16.34.02,32.79,1.31,49.13s5.32,33.05,15.52,45.88c10.19,12.83,27.62,20.85,43.38,16.35,21.34-6.1,30.9-30.61,35.52-52.31,8.32-39.12,10.35-80.36-.86-118.75-11.21-38.39-36.91-73.65-73.21-90.45-20.39-9.44-44-12.15-66.02-7.65-8.87,1.81-26.8,5.74-32.92,13.32-8.98,11.14,4.21,15.31,13.39,22.8,36.47,29.72,60.51,74.67,63.9,121.69Z"/></g><g class="cls-4"><path class="cls-6" d="m1502.89,713.66c6.26,26.71-2.98,54.75-16.18,78.81-12.47,22.72-28.56,43.45-47.48,61.15-7.12,6.67-14.85,13.03-24.03,16.35-9.18,3.32-20.11,3.13-27.99-2.62-8.34-6.09-11.71-17.25-11.06-27.56.65-10.31,4.71-20.05,8.7-29.58,16.95-40.37,30.18-87.74,53.56-124.82,19.32-30.63,64.48-3.06,64.48,28.27Z"/></g><path class="cls-7" d="m862.97,1373.43C324.93,989.1-25.14,556.99,81.1,408.28c62.93-88.13,272.04-56.92,543.98,63.14-4.88,2.86-9.71,5.83-14.41,8.88-186.61-69.39-325.77-79.74-372.38-14.51-91.92,128.66,210.95,502.53,676.46,835.07,465.55,332.52,917.44,497.8,1009.33,369.15,44.63-62.48-3.84-182.82-118.85-328.15,2.99-4.32,5.91-8.73,8.83-13.17,187.63,208.53,276.12,386.3,215.39,471.33-106.2,148.72-628.51-42.29-1166.49-426.6Z"/><g class="cls-1"><path class="cls-9" d="m2029.48,1800.03c-94.85,132.9-521.8-5.4-995.35-310.4l11.8-15.9c460.15,290.1,869.4,418.85,962.05,289.15,34.4-48.1,21-125.85-31.1-222.1,69.45,113.35,91.25,205.1,52.6,259.25Z"/></g><g class="cls-3"><path class="cls-6" d="m416.19,426.97c-164.78-48.29-285.07-46.48-330.21,16.72-14.14,19.77-20.18,44.53-18.82,73.56-9.71-44.59-5.63-81.56,13.95-108.96,62.93-88.13,272.04-56.92,543.98,63.14-4.88,2.86-9.71,5.83-14.41,8.88-72.97-27.14-138.73-45.25-194.49-53.33Z"/></g><g class="cls-3"><path class="cls-6" d="m1928.96,1705.42c-91.89,128.65-543.78-36.63-1009.33-369.15C514.02,1046.54,231.9,725.41,226.81,562.47c39.21,171.13,309.96,468.38,687.96,738.39,465.55,332.52,917.44,497.8,1009.33,369.15,11.8-16.54,17.1-37.14,16.37-61.19,9.11,39.58,5.76,72.44-11.5,96.59Z"/></g><path class="cls-9" d="m1894.14,1865.18c-75.32,0-173.69-21.51-291.17-64.48-221.57-81.03-487.47-228.44-748.73-415.07h0c-261.29-186.65-486.97-390.39-635.47-573.7C66.46,623.92,13.23,477.47,68.9,399.56c65.58-91.84,270.51-70.65,562.24,58.14,5.15,2.27,8.59,7.24,8.92,12.86.32,5.62-2.53,10.95-7.38,13.79-4.95,2.91-9.6,5.77-13.82,8.52-3.98,2.59-8.96,3.14-13.41,1.48-185.35-68.93-314.72-76.15-354.95-19.84-39.59,55.42,7.3,173.12,128.65,322.91,126.94,156.7,320.25,331.15,544.33,491.23,224.09,160.06,451.81,286.36,641.22,355.63,181.06,66.23,307.6,72.44,347.18,17.01,38.3-53.61-4.86-166.65-118.41-310.12-4.09-5.17-4.33-12.41-.57-17.84,2.92-4.21,5.78-8.52,8.62-12.86,2.55-3.89,6.76-6.38,11.4-6.73,4.64-.36,9.18,1.46,12.29,4.92,203.65,226.33,280.52,400.38,216.45,490.08-26.88,37.64-77.14,56.43-147.52,56.44ZM215.64,372.41c-59.03,0-100.99,14.7-122.33,44.58-46.42,64.98,7.8,202.05,148.77,376.06,146.85,181.27,370.44,383.05,629.6,568.17h0c259.12,185.11,522.49,331.18,741.6,411.31,210.32,76.92,357.56,83.77,403.96,18.78,41.98-58.77,1.56-175.75-108.62-324.28,51.28,93,61.01,165.02,27.67,211.7-48.72,68.21-184.35,65.98-381.9-6.27-191.87-70.18-422.12-197.81-648.35-359.4-226.22-161.6-421.62-338.02-550.21-496.75-132.4-163.45-178.48-291.03-129.74-359.24,33.24-46.51,106.71-60.27,212.67-41.49-88.87-28.62-164.44-43.17-223.13-43.17Z"/><path class="cls-7" d="m1915.28,1808.13c-.95.25-1.85.5-2.75.8-14.8,5.05-24.8,20.1-28.8,35.4-4.3,16.25-3.4,33.35-4.6,50.1-1.25,16.8-5.15,34.4-16.95,46.4-11.75,12-33.35,15.5-45.15,3.5-16.55-16.9-4.5-50.6-23.1-65.25-6.4-4.95-14.45-6.1-22.7-6.9-8.35-.8-16.85-1.35-24-5.35-10.9-6.15-16.05-19.1-18-31.4-2-12.35-1.65-25.1-5.25-37.1-3.65-11.95-12.75-23.5-25.15-24.85l165.75,26.55,47.55,7.6,3.15.5Z"/><path class="cls-9" d="m1836.05,1966.77c-11.6,0-22.15-4.23-29.7-11.92-11.63-11.85-13.43-28.01-14.87-41-1.33-12-2.46-19.53-6.84-22.97-3.4-2.67-9.58-3.25-16.75-3.94-8.75-.83-18.68-1.78-28.04-7.07-13.45-7.59-22.25-22.15-25.46-42.09-.82-5.08-1.26-10.03-1.69-14.83-.65-7.29-1.27-14.19-3.11-20.25-2.36-7.78-7.57-13.8-12.4-14.33-8.24-.9-14.18-8.3-13.29-16.54.9-8.23,8.3-14.12,16.54-13.29,17.03,1.86,31.9,15.77,37.86,35.44,2.73,9.01,3.52,17.79,4.28,26.28.4,4.48.78,8.71,1.43,12.75,1.66,10.31,5.51,17.87,10.58,20.73,3.81,2.15,9.8,2.72,16.14,3.33,9.85.94,22.11,2.1,32.43,10.21,14.6,11.46,16.56,29.09,18.13,43.26,1.08,9.69,2.09,18.84,6.45,23.28,2.39,2.44,5.83,2.94,8.3,2.94h0c5.53,0,11.58-2.53,15.42-6.44,7.25-7.39,11.4-19.49,12.68-36.98.35-4.71.51-9.45.68-14.19.45-12.55.91-25.53,4.37-38.66,6.33-24.03,22.61-42.01,42.5-46.92,8.04-1.98,16.17,2.92,18.16,10.96,1.99,8.04-2.92,16.17-10.96,18.16-11.04,2.73-18.04,15.42-20.68,25.44-2.61,9.89-2.99,20.67-3.4,32.09-.18,5.11-.37,10.22-.74,15.31-1.82,24.87-8.75,43.12-21.18,55.79-9.48,9.66-23.24,15.43-36.82,15.43h-.02Z"/><path class="cls-7" d="m97.8,602.19c49.69,87.26,50.9,125.66,41.1,188.6-2.6,16.71-6.28,33.43-5.66,50.34s6.18,34.48,19.05,45.47c12.86,10.99,34,13.01,46.3,1.4,16.82-15.87,8.95-43.23,5.68-66.13-4.6-32.28,3.24-66.18,21.56-93.15"/><g class="cls-3"><path class="cls-6" d="m200.33,895.58c-12.5,8.65-31.25,6.1-43.05-4-12.85-10.95-18.4-28.55-19.05-45.45-.6-16.9,3.05-33.6,5.65-50.35,9.8-62.9,8.6-101.3-41.1-188.6l56.5,55.85c19.75,49.1,18.55,82.2,11.3,128.6-2.6,16.7-6.3,33.45-5.65,50.35.6,16.9,6.15,34.45,19.05,45.45,4.65,3.95,10.35,6.75,16.35,8.15Z"/></g><path class="cls-9" d="m177.32,910.75c-12.24,0-24.84-4.26-34.78-12.74-14.8-12.64-23.43-32.64-24.3-56.32-.55-15.08,1.87-29.49,4.22-43.42.55-3.26,1.1-6.51,1.61-9.78,9.34-59.96,8.44-95-39.31-178.87-4.1-7.2-1.59-16.36,5.61-20.46,7.19-4.1,16.36-1.59,20.46,5.62,49.88,87.6,53.49,130.21,42.89,198.33-.53,3.38-1.1,6.76-1.66,10.14-2.19,13.02-4.27,25.32-3.82,37.33.55,14.98,5.58,27.59,13.8,34.61,7.77,6.63,20.29,7.53,26.26,1.89,7.95-7.5,6.18-22.37,2.8-42.56-.6-3.58-1.19-7.11-1.68-10.54-5.12-35.9,3.63-73.7,24-103.7,4.66-6.85,13.98-8.63,20.84-3.98,6.85,4.65,8.64,13.98,3.98,20.84-16.23,23.9-23.2,54-19.12,82.6.46,3.2,1.01,6.5,1.57,9.83,3.74,22.39,8.4,50.26-11.8,69.32-8.38,7.91-19.8,11.85-31.56,11.85Z"/><path class="cls-7" d="m1050.78,1485.43c-12.45-5.9-27.85,1.15-36.2,12.1-8.35,10.9-11.5,24.85-15.15,38.1-3.65,13.25-8.45,27.05-18.95,35.95-17,14.45-44.45,10.6-61.25-4.05-1.05-.95-2.1-1.9-3.1-2.9-14.7-14.6-21.65-35.75-24.25-56.5-2.75-22.1-1.25-44.55-3.15-66.75-3.25-38.7-13.95-59.55-67.6-98.2,47.4-14.3,111.8,12.2,210.2,120.35,6.35,6.95,12.85,14.25,19.45,21.9Z"/><g class="cls-3"><path class="cls-6" d="m946.73,1556.13c9.85,8.6,23.4,13.45,36.35,13.05-.85.85-1.7,1.65-2.6,2.4-17,14.45-44.45,10.6-61.25-4.05-16.85-14.6-24.6-37.25-27.35-59.4-2.75-22.1-1.25-44.55-3.15-66.75-3.25-38.7-13.95-59.55-67.6-98.2.12-.04.24-.07.36-.11,21.02-6.26,43.79-.07,59.85,14.86,25.82,24,32.44,42.99,34.89,72,1.9,22.25.4,44.7,3.15,66.8,2.75,22.1,10.5,44.75,27.35,59.4Z"/></g><path class="cls-9" d="m954.45,1595.66c-16.62,0-33.28-6.54-45.08-16.81-17.45-15.19-28.64-38.99-32.38-68.84-1.64-13.15-1.87-26.23-2.08-38.87-.17-9.88-.32-19.2-1.11-28.52-2.68-31.83-9.31-49.71-61.46-87.3-6.72-4.84-8.24-14.22-3.4-20.94,4.84-6.72,14.22-8.25,20.94-3.4,53.37,38.46,69.93,62.94,73.82,109.12.87,10.32,1.04,20.59,1.21,30.53.21,12.39.41,24.1,1.85,35.65,1.95,15.62,7.41,36.97,22.31,49.94,11.04,9.61,30.43,13.48,41.7,3.92,7.31-6.2,11.15-17.36,14.22-28.5l1.09-4.01c3.42-12.68,7.3-27.06,16.58-39.22,11.81-15.51,34.36-26.15,54.58-16.51,7.48,3.57,10.65,12.52,7.08,20-3.57,7.47-12.52,10.63-20,7.08-4.69-2.25-13,1.32-17.8,7.61-5.71,7.49-8.51,17.87-11.47,28.85l-1.13,4.16c-4.34,15.77-10.22,31.95-23.74,43.42-10.42,8.84-23.06,12.64-35.72,12.64Z"/><g class="cls-1"><path class="cls-9" d="m272.21,754.59c6.55,13.43,4.33,29.29,1.95,44.04-2.52,15.67-5.05,31.35-7.57,47.02-13.68-16.94-27.36-33.88-41.04-50.82-11.37-14.07-23.99-39.69-6.3-54.9,16.48-14.17,44.4-2.89,52.96,14.65Z"/></g><g class="cls-1"><path class="cls-9" d="m1050.78,1485.43c-12.45-5.9-27.85,1.15-36.2,12.1-8.35,10.9-11.5,24.85-15.15,38.1-3.65,13.25-8.45,27.05-18.95,35.95-17,14.45-44.45,10.6-61.25-4.05-1.05-.95-2.1-1.9-3.1-2.9,18.4-1.1,36.05-11.6,45.6-27.45,8.2-13.65,10.3-29.95,15.5-45,5.25-15.05,15.7-30.25,31.35-32.95,7.8-1.35,15.75.65,22.75,4.3,6.35,6.95,12.85,14.25,19.45,21.9Z"/></g><g class="cls-1"><path class="cls-9" d="m1912.53,1808.93c-14.8,5.05-24.8,20.1-28.8,35.4-4.3,16.25-3.4,33.35-4.6,50.1-1.25,16.8-5.15,34.4-16.95,46.4-11.75,12-33.35,15.5-45.15,3.5-16.55-16.9-4.5-50.6-23.1-65.25-6.4-4.95-14.45-6.1-22.7-6.9-1.15-3.75-3.05-7.1-5.9-9.9,13.55-12.35,35.75-13.7,50.75-3.2,3.7,2.6,7.45,6,12,5.7,4.8-.3,8.4-4.9,9.5-9.6,1.15-4.7.5-9.65.6-14.45.35-16.7,10.45-32.75,25.35-40.25.35-.2.7-.35,1.05-.45,14.7-7,33.1-5.4,46.4,4,.35,1.2.75,2.4,1.15,3.6.15.45.25.85.4,1.3Z"/></g></svg>