<svg enable-background="new 0 0 217.8 169.3" viewBox="0 0 217.8 169.3" xmlns="http://www.w3.org/2000/svg" xmlns:xlink="http://www.w3.org/1999/xlink"><linearGradient id="a"><stop offset="0" stop-color="#fff"/><stop offset=".108" stop-color="#fafafa"/><stop offset=".2318" stop-color="#ececec"/><stop offset=".3633" stop-color="#d5d5d5"/><stop offset=".5004" stop-color="#b5b5b5"/><stop offset=".6417" stop-color="#8c8c8c"/><stop offset=".7865" stop-color="#595959"/><stop offset=".9316" stop-color="#1e1e1e"/><stop offset="1"/></linearGradient><linearGradient id="b" gradientTransform="matrix(-1 0 0 -1 -734.6068 252.8417)" gradientUnits="userSpaceOnUse" x1="-843.4989" x2="-843.4989" xlink:href="#a" y1="267.6659" y2="173.2552"/><linearGradient id="c" gradientTransform="matrix(-1 0 0 -1 -734.6068 252.8417)" gradientUnits="userSpaceOnUse" x1="-895.6453" x2="-791.3775" xlink:href="#a" y1="189.0882" y2="189.0882"/><linearGradient id="d" gradientUnits="userSpaceOnUse" x1="108.8924" x2="108.8924" y1="-119.774" y2="145.1885"><stop offset="0" stop-color="#fff"/><stop offset=".3048" stop-color="#fdfdfd"/><stop offset=".4423" stop-color="#f6f6f6"/><stop offset=".5461" stop-color="#e9e9e9"/><stop offset=".6331" stop-color="#d7d7d7"/><stop offset=".7095" stop-color="#bfbfbf"/><stop offset=".7786" stop-color="#a2a2a2"/><stop offset=".842" stop-color="#808080"/><stop offset=".9011" stop-color="#585858"/><stop offset=".9545" stop-color="#2c2c2c"/><stop offset="1"/></linearGradient><linearGradient id="e" gradientUnits="userSpaceOnUse" x1="108.8924" x2="108.8924" xlink:href="#a" y1="67.0844" y2="189.789"/><path d="m82.5 17.1c3.8 0 7.5 1.4 10.4 4.3 5.8 5.8 5.8 15.1 0 20.9-4.3 4.3-6.6 10-6.6 16s2.4 11.7 6.6 16c4.3 4.3 10 6.6 16 6.6s11.7-2.4 16-6.6c4.3-4.3 6.6-10 6.6-16s-2.4-11.7-6.6-16c-5.8-5.8-5.8-15.1 0-20.9s15.1-5.8 20.9 0c9.8 9.8 15.3 22.9 15.3 36.9 0 13.9-5.4 27-15.3 36.9-9.8 9.8-22.9 15.3-36.9 15.3-13.9 0-27-5.4-36.9-15.3-9.8-9.8-15.3-22.9-15.3-36.9 0-13.9 5.4-27 15.3-36.9 2.9-2.9 6.7-4.3 10.5-4.3z" fill="#00dac8"/><g opacity=".3"><path d="m84.2 86.4c14 12.4 35.4 12.4 49.4 0 13.1-11.5 16-29.8 8.9-44.4-3.8-7.8-6.3-16.2-7-24.8-3.8-.1-7.7 1.4-10.7 4.3-5.8 5.8-5.8 15.1 0 20.9 4.3 4.3 6.6 10 6.6 16s-2.4 11.7-6.6 16c-8.8 8.8-23.2 8.8-32 0s-8.8-23.2 0-32c5.8-5.8 5.8-15.1 0-20.9-2.9-2.9-6.7-4.3-10.4-4.3-.1 0-.1 0-.2 0-.7 8.6-3.2 17-7 24.8-7.1 14.6-4.1 32.8 9 44.4z" fill="url(#b)"/><path d="m72 95.2c20.3 20.3 53.4 20.3 73.7 0 9.8-9.8 15.3-22.9 15.3-36.9 0-13.9-5.4-27-15.3-36.9-2.8-2.8-6.5-4.3-10.2-4.3.7 8.6 3.2 17 7 24.8 7.1 14.6 4.1 32.9-8.9 44.4-14 12.4-35.4 12.4-49.4 0-13.1-11.5-16-29.8-8.9-44.4 3.8-7.8 6.3-16.2 7-24.8-3.7.1-7.4 1.5-10.2 4.3-20.4 20.3-20.4 53.4-.1 73.8z" fill="url(#c)"/></g><path d="m114.2 168.7c-62.4 2.9-114.2-48-114.2-110.4v-58.2s.1-.1.1-.1h1.6c32.4 0 58.7 26.3 58.7 58.7 0 28.3 23.2 51.2 51.5 49.4 25.2-1.6 45.3-22.6 45.3-48.3v-1.2c.1-32.3 26.4-58.6 58.8-58.6h1.6c.1 0 .1.1.1.1v59.7c.1 58.4-45.9 106.1-103.5 108.9z" fill="#2259c9"/><g opacity=".4"><path d="m108.9 139c43.4 0 78.6-35.2 78.6-78.6v-52.5c-18 10-30.3 29.3-30.3 51.4v1.2c0 25.6-20 46.7-45.3 48.3-28.3 1.8-51.5-21.1-51.5-49.4 0-22.1-12.2-41.3-30.3-51.4v52.5c.2 43.3 35.4 78.5 78.8 78.5z" fill="url(#d)"/><path d="m217.6.5h-1.6c-10.3 0-20 2.7-28.5 7.4v52.5c0 43.4-35.2 78.6-78.6 78.6s-78.6-35.2-78.6-78.6v-52.5c-8.5-4.7-18.2-7.4-28.5-7.4h-1.7s-.1.1-.1.2v58.1c0 62.5 51.8 113.4 114.2 110.4 57.6-2.8 103.6-50.5 103.6-108.8v-59.7c0-.1-.1-.2-.2-.2z" fill="url(#e)"/></g></svg>