<?xml version="1.0" encoding="utf-8"?>
<!-- Generator: Adobe Illustrator 24.0.3, SVG Export Plug-In . SVG Version: 6.00 Build 0)  -->
<!DOCTYPE svg PUBLIC "-//W3C//DTD SVG 1.1//EN" "http://www.w3.org/Graphics/SVG/1.1/DTD/svg11.dtd" [
	<!ENTITY st0 "fill:#00DAC8;">
	<!ENTITY st1 "opacity:0.3;">
	<!ENTITY st2 "fill:url(#SVGID_1_);">
	<!ENTITY st3 "fill:url(#SVGID_2_);">
	<!ENTITY st4 "fill:#2259C9;">
	<!ENTITY st5 "opacity:0.4;">
	<!ENTITY st6 "fill:url(#SVGID_3_);">
	<!ENTITY st7 "fill:url(#SVGID_4_);">
]>
<svg version="1.1" id="Livello_1" xmlns="http://www.w3.org/2000/svg" xmlns:xlink="http://www.w3.org/1999/xlink" x="0px" y="0px"
	 viewBox="0 0 217.8 169.3" style="enable-background:new 0 0 217.8 169.3;" xml:space="preserve">
<g>
	<path style="&st0;" d="M82.5,17.1c3.8,0,7.5,1.4,10.4,4.3c5.8,5.8,5.8,15.1,0,20.9c-4.3,4.3-6.6,10-6.6,16c0,6,2.4,11.7,6.6,16
		c4.3,4.3,10,6.6,16,6.6c6,0,11.7-2.4,16-6.6c4.3-4.3,6.6-10,6.6-16c0-6-2.4-11.7-6.6-16c-5.8-5.8-5.8-15.1,0-20.9
		c5.8-5.8,15.1-5.8,20.9,0c9.8,9.8,15.3,22.9,15.3,36.9c0,13.9-5.4,27-15.3,36.9c-9.8,9.8-22.9,15.3-36.9,15.3
		c-13.9,0-27-5.4-36.9-15.3c-9.8-9.8-15.3-22.9-15.3-36.9c0-13.9,5.4-27,15.3-36.9C74.9,18.5,78.7,17.1,82.5,17.1z"/>
</g>
<g style="&st1;">
	
		<linearGradient id="SVGID_1_" gradientUnits="userSpaceOnUse" x1="-843.4989" y1="267.6659" x2="-843.4989" y2="173.2552" gradientTransform="matrix(-1 0 0 -1 -734.6068 252.8417)">
		<stop  offset="0" style="stop-color:#FFFFFF"/>
		<stop  offset="0.108" style="stop-color:#FAFAFA"/>
		<stop  offset="0.2318" style="stop-color:#ECECEC"/>
		<stop  offset="0.3633" style="stop-color:#D5D5D5"/>
		<stop  offset="0.5004" style="stop-color:#B5B5B5"/>
		<stop  offset="0.6417" style="stop-color:#8C8C8C"/>
		<stop  offset="0.7865" style="stop-color:#595959"/>
		<stop  offset="0.9316" style="stop-color:#1E1E1E"/>
		<stop  offset="1" style="stop-color:#000000"/>
	</linearGradient>
	<path style="&st2;" d="M84.2,86.4c14,12.4,35.4,12.4,49.4,0c13.1-11.5,16-29.8,8.9-44.4c-3.8-7.8-6.3-16.2-7-24.8
		c-3.8-0.1-7.7,1.4-10.7,4.3c-5.8,5.8-5.8,15.1,0,20.9c4.3,4.3,6.6,10,6.6,16c0,6-2.4,11.7-6.6,16c-8.8,8.8-23.2,8.8-32,0
		c-8.8-8.8-8.8-23.2,0-32c5.8-5.8,5.8-15.1,0-20.9c-2.9-2.9-6.7-4.3-10.4-4.3c-0.1,0-0.1,0-0.2,0c-0.7,8.6-3.2,17-7,24.8
		C68.1,56.6,71.1,74.8,84.2,86.4z"/>
	
		<linearGradient id="SVGID_2_" gradientUnits="userSpaceOnUse" x1="-895.6453" y1="189.0882" x2="-791.3775" y2="189.0882" gradientTransform="matrix(-1 0 0 -1 -734.6068 252.8417)">
		<stop  offset="0" style="stop-color:#FFFFFF"/>
		<stop  offset="0.108" style="stop-color:#FAFAFA"/>
		<stop  offset="0.2318" style="stop-color:#ECECEC"/>
		<stop  offset="0.3633" style="stop-color:#D5D5D5"/>
		<stop  offset="0.5004" style="stop-color:#B5B5B5"/>
		<stop  offset="0.6417" style="stop-color:#8C8C8C"/>
		<stop  offset="0.7865" style="stop-color:#595959"/>
		<stop  offset="0.9316" style="stop-color:#1E1E1E"/>
		<stop  offset="1" style="stop-color:#000000"/>
	</linearGradient>
	<path style="&st3;" d="M72,95.2c20.3,20.3,53.4,20.3,73.7,0c9.8-9.8,15.3-22.9,15.3-36.9c0-13.9-5.4-27-15.3-36.9
		c-2.8-2.8-6.5-4.3-10.2-4.3c0.7,8.6,3.2,17,7,24.8c7.1,14.6,4.1,32.9-8.9,44.4c-14,12.4-35.4,12.4-49.4,0
		c-13.1-11.5-16-29.8-8.9-44.4c3.8-7.8,6.3-16.2,7-24.8c-3.7,0.1-7.4,1.5-10.2,4.3C51.7,41.7,51.7,74.8,72,95.2z"/>
</g>
<g>
	<path style="&st4;" d="M114.2,168.7C51.8,171.6,0,120.7,0,58.3V0.1C0,0.1,0.1,0,0.1,0h1.6c32.4,0,58.7,26.3,58.7,58.7l0,0
		c0,28.3,23.2,51.2,51.5,49.4c25.2-1.6,45.3-22.6,45.3-48.3v-1.2C157.3,26.3,183.6,0,216,0h1.6c0.1,0,0.1,0.1,0.1,0.1v59.7
		C217.8,118.2,171.8,165.9,114.2,168.7z"/>
</g>
<g style="&st5;">
	<linearGradient id="SVGID_3_" gradientUnits="userSpaceOnUse" x1="108.8924" y1="-119.774" x2="108.8924" y2="145.1885">
		<stop  offset="0" style="stop-color:#FFFFFF"/>
		<stop  offset="0.3048" style="stop-color:#FDFDFD"/>
		<stop  offset="0.4423" style="stop-color:#F6F6F6"/>
		<stop  offset="0.5461" style="stop-color:#E9E9E9"/>
		<stop  offset="0.6331" style="stop-color:#D7D7D7"/>
		<stop  offset="0.7095" style="stop-color:#BFBFBF"/>
		<stop  offset="0.7786" style="stop-color:#A2A2A2"/>
		<stop  offset="0.842" style="stop-color:#808080"/>
		<stop  offset="0.9011" style="stop-color:#585858"/>
		<stop  offset="0.9545" style="stop-color:#2C2C2C"/>
		<stop  offset="1" style="stop-color:#000000"/>
	</linearGradient>
	<path style="&st6;" d="M108.9,139c43.4,0,78.6-35.2,78.6-78.6V7.9c-18,10-30.3,29.3-30.3,51.4v1.2c0,25.6-20,46.7-45.3,48.3
		c-28.3,1.8-51.5-21.1-51.5-49.4l0,0c0-22.1-12.2-41.3-30.3-51.4v52.5C30.3,103.8,65.5,139,108.9,139z"/>
	<linearGradient id="SVGID_4_" gradientUnits="userSpaceOnUse" x1="108.8924" y1="67.0844" x2="108.8924" y2="189.789">
		<stop  offset="0" style="stop-color:#FFFFFF"/>
		<stop  offset="0.108" style="stop-color:#FAFAFA"/>
		<stop  offset="0.2318" style="stop-color:#ECECEC"/>
		<stop  offset="0.3633" style="stop-color:#D5D5D5"/>
		<stop  offset="0.5004" style="stop-color:#B5B5B5"/>
		<stop  offset="0.6417" style="stop-color:#8C8C8C"/>
		<stop  offset="0.7865" style="stop-color:#595959"/>
		<stop  offset="0.9316" style="stop-color:#1E1E1E"/>
		<stop  offset="1" style="stop-color:#000000"/>
	</linearGradient>
	<path style="&st7;" d="M217.6,0.5H216c-10.3,0-20,2.7-28.5,7.4v52.5c0,43.4-35.2,78.6-78.6,78.6s-78.6-35.2-78.6-78.6V7.9
		C21.8,3.2,12.1,0.5,1.8,0.5H0.1C0.1,0.5,0,0.6,0,0.7l0,58.1c0,62.5,51.8,113.4,114.2,110.4c57.6-2.8,103.6-50.5,103.6-108.8V0.7
		C217.8,0.6,217.7,0.5,217.6,0.5z"/>
</g>
</svg>
